<svg width="17" height="17" viewBox="0 0 17 17" fill="none" xmlns="http://www.w3.org/2000/svg">
<path fill-rule="evenodd" clip-rule="evenodd" d="M1.41421 1.58579C0.633165 2.36683 0.633166 3.63316 1.41421 4.41421L5.67157 8.67157L1.58579 12.7574C0.804738 13.5384 0.804738 14.8047 1.58579 15.5858C2.36683 16.3668 3.63316 16.3668 4.41421 15.5858L8.5 11.5L12.7279 15.7279C13.509 16.509 14.7753 16.509 15.5563 15.7279C16.3374 14.9469 16.3374 13.6805 15.5563 12.8995L11.3284 8.67157L15.7279 4.27208C16.509 3.49103 16.509 2.2247 15.7279 1.44365C14.9469 0.662602 13.6805 0.662603 12.8995 1.44365L8.5 5.84314L4.24264 1.58579C3.46159 0.804737 2.19526 0.804737 1.41421 1.58579Z" fill="#333333"/>
</svg>
