<svg width="66" height="66" viewBox="0 0 66 66" fill="none" xmlns="http://www.w3.org/2000/svg">
<circle cx="33" cy="33" r="27" fill="#0055FF"/>
<circle cx="33" cy="33" r="30" stroke="#0055FF" stroke-opacity="0.25" stroke-width="6"/>
<path fill-rule="evenodd" clip-rule="evenodd" d="M33 21C31.3431 21 30 22.3431 30 24V30H24C22.3431 30 21 31.3431 21 33C21 34.6569 22.3431 36 24 36H30V42C30 43.6569 31.3431 45 33 45C34.6569 45 36 43.6569 36 42V36H42C43.6569 36 45 34.6569 45 33C45 31.3431 43.6569 30 42 30H36V24C36 22.3431 34.6569 21 33 21Z" fill="white"/>
</svg>
