<svg width="25" height="19" viewBox="0 0 25 19" fill="none" xmlns="http://www.w3.org/2000/svg">
<path d="M24.6061 9.61978C23.6726 9.17239 22.6064 8.92707 21.5066 8.88155C21.801 6.99647 21.5715 5.09999 20.7945 3.47992C20.6709 3.22168 20.4042 3.06997 20.1157 3.0874C18.7815 3.18973 17.4668 3.63389 16.2686 4.34792C15.5265 2.61258 14.3654 1.12836 12.8928 0.12153C12.6558 -0.04051 12.345 -0.04051 12.1087 0.12153C10.6351 1.12993 9.47369 2.61547 8.73096 4.35172C7.53241 3.6377 6.21958 3.1897 4.88551 3.08798C4.5992 3.06635 4.33063 3.22162 4.20668 3.4805C3.43004 5.10057 3.20696 6.99639 3.50202 8.88147C2.39933 8.92634 1.33028 9.17198 0.394515 9.62035C0.135957 9.7443 -0.0196292 10.0142 0.00199649 10.2992C0.209874 13.0045 1.96649 15.624 4.58694 17.1363C6.06926 17.9923 7.7161 18.4449 9.34815 18.4449H9.34848C10.4586 18.4449 11.5373 18.2196 12.4999 17.81C13.4625 18.2196 14.5406 18.4449 15.6517 18.4449C17.2838 18.4449 18.9307 17.992 20.413 17.1363C23.0341 15.6236 24.791 13.0035 24.9979 10.2992C25.0202 10.0132 24.8646 9.74365 24.606 9.61969L24.6061 9.61978ZM19.7374 4.5277C20.2648 5.8702 20.3784 7.40639 20.0937 8.93027C19.0892 9.05067 18.0947 9.33797 17.1512 9.78217C17.1738 9.48326 17.1899 9.18273 17.1899 8.87962C17.1899 7.77858 17.0333 6.7011 16.7425 5.68204C17.6757 5.08487 18.6954 4.68298 19.7374 4.5277H19.7374ZM12.5003 1.55638C14.5474 3.16909 15.8012 5.92606 15.8012 8.87962C15.8012 11.8319 14.5474 14.5892 12.5003 16.201C10.4534 14.5886 9.20002 11.8316 9.20002 8.87962C9.20002 5.92639 10.4534 3.16934 12.5003 1.55638ZM5.26426 4.5277C6.30588 4.68426 7.32436 5.08807 8.25814 5.68592C7.96763 6.70333 7.81172 7.78024 7.81172 8.87937C7.81172 9.18216 7.82754 9.48236 7.8511 9.78026C6.90856 9.33739 5.91693 9.05043 4.91399 8.93003C4.62864 7.40615 4.73613 5.87028 5.26422 4.52779L5.26426 4.5277ZM9.3486 17.0569C7.95933 17.0569 6.55321 16.6686 5.28136 15.9342C3.21225 14.7399 1.77836 12.7599 1.44427 10.6791C2.1825 10.3983 3.00368 10.2511 3.84681 10.2511C5.23608 10.2511 6.6422 10.6394 7.91405 11.3747C7.98151 11.4135 8.04317 11.458 8.10837 11.4993C8.59095 13.5933 9.642 15.4726 11.1071 16.8316C10.5471 16.9778 9.95478 17.0569 9.34923 17.0569L9.3486 17.0569ZM19.7194 15.9345C18.4475 16.6689 17.0415 17.0572 15.6521 17.0572C15.0462 17.0572 14.4536 16.9785 13.8942 16.8319C15.3588 15.4733 16.4097 13.5946 16.8923 11.5003C16.9585 11.4596 17.0192 11.4131 17.0866 11.3744C18.3585 10.64 19.7645 10.2517 21.1539 10.2517C21.997 10.2517 22.8188 10.3982 23.5564 10.6797C23.2226 12.7598 21.7884 14.7399 19.7193 15.9345L19.7194 15.9345Z" fill="#131720"/>
</svg>
