<svg width="21" height="19" viewBox="0 0 21 19" fill="none" xmlns="http://www.w3.org/2000/svg">
<path d="M14.275 8.8592L11.4796 8.85859V4.06528C11.4796 3.67509 11.1631 3.35971 10.774 3.35971C10.3849 3.35971 10.0685 3.67526 10.0685 4.06528V9.56432C10.0685 9.95436 10.3849 10.2699 10.774 10.2699H14.2747C14.6641 10.2699 14.9801 9.95434 14.9801 9.56447C14.98 9.17548 14.664 8.85917 14.275 8.85917V8.8592Z" fill="#131720"/>
<path d="M17.497 2.63364C13.9855 -0.877881 8.27133 -0.877881 4.7585 2.63364C3.20875 4.18385 2.28931 6.21289 2.14169 8.38654L1.22394 7.39837C0.958346 7.11322 0.511123 7.09621 0.225828 7.3612C-0.0602296 7.62679 -0.0766325 8.07402 0.18866 8.36008L2.23261 10.561C2.3718 10.7107 2.5608 10.7867 2.75038 10.7867C2.92238 10.7867 3.09467 10.7244 3.23087 10.5981L5.43233 8.55392C5.71839 8.28833 5.73479 7.84111 5.4695 7.55551C5.20421 7.2696 4.757 7.25244 4.47108 7.51834L3.56851 8.3562C3.71959 6.57243 4.48145 4.90935 5.75749 3.63261C8.71873 0.671835 13.5367 0.671835 16.4979 3.63261C19.4586 6.59369 19.4586 11.4122 16.4979 14.373C15.0637 15.8073 13.1565 16.5973 11.1275 16.5973C9.09964 16.5973 7.19244 15.8076 5.75749 14.373C5.48137 14.097 5.03401 14.097 4.75831 14.373C4.48263 14.6489 4.48263 15.0965 4.75846 15.372C6.46052 17.0734 8.72239 18.01 11.1277 18.01C13.5337 18.01 15.7954 17.0731 17.497 15.372C21.0089 11.8602 21.0089 6.14518 17.4971 2.6335L17.497 2.63364Z" fill="#131720"/>
</svg>
