<svg width="21" height="19" viewBox="0 0 21 19" fill="none" xmlns="http://www.w3.org/2000/svg">
<path d="M19.5728 10.605H18.8235C18.2713 10.605 17.8235 11.0527 17.8235 11.605V16.9436C17.8235 17.4137 17.6206 18 16.7773 18H13.5925C13.0402 18 12.5925 17.5523 12.5925 17V12.6614C12.5925 12.1092 12.1448 11.6614 11.5925 11.6614H9.40763C8.85535 11.6614 8.40763 12.1092 8.40763 12.6614V17C8.40763 17.5523 7.95992 18 7.40763 18H4.22278C3.37954 18 3.17657 17.4137 3.17657 16.9436V11.605C3.17657 11.0527 2.72885 10.605 2.17657 10.605H1.4273C0.801667 10.605 0.935583 10.2627 1.36453 9.81481L9.75934 1.3296C9.96335 1.11621 10.2312 1.01056 10.5001 1C10.7689 1.01056 11.0368 1.11515 11.2408 1.3296L19.6345 9.81376C20.0645 10.2627 20.1985 10.605 19.5728 10.605Z" stroke="#131720" stroke-width="1.5"/>
</svg>
