<svg width="16" height="18" viewBox="0 0 16 18" fill="none" xmlns="http://www.w3.org/2000/svg">
<path fill-rule="evenodd" clip-rule="evenodd" d="M10.5 4C10.5 5.38071 9.38071 6.5 8 6.5C6.61929 6.5 5.5 5.38071 5.5 4C5.5 2.61929 6.61929 1.5 8 1.5C9.38071 1.5 10.5 2.61929 10.5 4ZM8 9C7.40437 9 6.80238 9.07016 6.21013 9.2022C2.95829 9.92714 0 12.5174 0 15.6017C0 18.1451 3.64969 17.1448 6.70578 16.3071C8.03065 15.944 9.24396 15.6114 10 15.6114C10.8967 15.6114 11.9222 16.0793 12.8686 16.5111C14.5606 17.2831 16 17.9399 16 15.6017C16 12.5174 13.0417 9.92714 9.78987 9.2022C9.19762 9.07016 8.59563 9 8 9ZM8 8C7.41201 8 6.85366 7.87313 6.35081 7.64528C4.96441 7.01705 4 5.62115 4 4C4 1.79086 5.79086 0 8 0C10.2091 0 12 1.79086 12 4C12 5.62115 11.0356 7.01705 9.64918 7.64528C9.14634 7.87313 8.58799 8 8 8ZM12.5216 12.112C13.7901 13.1111 14.4928 14.3586 14.4999 15.5829C14.2165 15.4764 13.8924 15.3295 13.4912 15.1464L13.4646 15.1343L13.4646 15.1343C13.0087 14.9263 12.4639 14.6776 11.9127 14.4841C11.3553 14.2883 10.6916 14.1114 10 14.1114C9.44388 14.1114 8.81378 14.2281 8.2326 14.3607C7.6374 14.4964 6.97688 14.6775 6.32942 14.855L6.30928 14.8605C4.71794 15.2966 3.23834 15.6923 2.16416 15.7229C1.91444 15.73 1.72812 15.7149 1.59601 15.6898C1.557 15.6824 1.52587 15.6747 1.50155 15.6677C1.50063 15.65 1.5 15.6282 1.5 15.6017C1.5 14.3714 2.20344 13.1162 3.47839 12.112C4.74897 11.1112 6.42633 10.5 8 10.5C9.57367 10.5 11.251 11.1112 12.5216 12.112ZM8 5C8.55229 5 9 4.55228 9 4C9 3.44772 8.55229 3 8 3C7.44772 3 7 3.44772 7 4C7 4.55228 7.44772 5 8 5Z" fill="#131720"/>
</svg>
